<!DOCTYPE svg PUBLIC "-//W3C//DTD SVG 1.1//EN" "http://www.w3.org/Graphics/SVG/1.1/DTD/svg11.dtd">
<!-- Uploaded to: SVG Repo, www.svgrepo.com, Transformed by: SVG Repo Mixer Tools -->
<svg width="256px" height="256px" viewBox="0 0 512 512" xmlns="http://www.w3.org/2000/svg" fill="#ad95ed" stroke="#ad95ed" stroke-width="7.168000000000001">
<g id="SVGRepo_bgCarrier" stroke-width="0"/>
<g id="SVGRepo_tracerCarrier" stroke-linecap="round" stroke-linejoin="round"/>
<g id="SVGRepo_iconCarrier"> <path fill="var(--ci-primary-color, #ad95ed)" d="M472,232H424V120a24.028,24.028,0,0,0-24-24H40a24.028,24.028,0,0,0-24,24V366a24.028,24.028,0,0,0,24,24H212v50H152v32H304V440H244V390h92v58a24.027,24.027,0,0,0,24,24H472a24.027,24.027,0,0,0,24-24V256A24.027,24.027,0,0,0,472,232ZM336,256V358H48V128H392V232H360A24.027,24.027,0,0,0,336,256ZM464,440H368V264h96Z" class="ci-primary"/> </g>
</svg>