<?xml version="1.0" encoding="iso-8859-1"?>
<!-- Generator: Adobe Illustrator 25.4.1, SVG Export Plug-In . SVG Version: 6.00 Build 0)  -->
<svg fill="#ad95ed" version="1.1" id="Layer_1" xmlns="http://www.w3.org/2000/svg" xmlns:xlink="http://www.w3.org/1999/xlink" x="0px" y="0px"
	 viewBox="0 0 64 64" style="enable-background:new 0 0 64 64;" xml:space="preserve">
<g>
	<path d="M54,12h-9v19c0,7.18-5.82,13-13,13s-13-5.82-13-13V12h-9c-3.314,0-6,2.686-6,6v28c0,3.314,2.686,6,6,6h44
		c3.314,0,6-2.686,6-6V18C60,14.686,57.314,12,54,12z"/>
	<path d="M32,38c3.866,0,7-3.134,7-7V12H25v19C25,34.866,28.134,38,32,38z"/>
</g>
</svg>