<?xml version="1.0" encoding="UTF-8"?>
<svg version="1.1" xmlns="http://www.w3.org/2000/svg" width="1080" height="1080">
<path d="M0 0 C97.02 0 194.04 0 294 0 C294 242.22 294 484.44 294 734 C415.11 734 536.22 734 661 734 C659.6405446 738.0783662 658.39213718 741.46510328 656.50500298 745.23608971 C655.74637899 746.75931028 655.74637899 746.75931028 654.97242928 748.31330299 C654.41811666 749.41610289 653.86380405 750.51890278 653.29269409 751.65512085 C652.70437805 752.83346497 652.11606201 754.01180908 651.50991821 755.2258606 C649.87688483 758.49640788 648.23886409 761.76443522 646.60003266 765.03208014 C644.80649266 768.61042309 643.01761857 772.19109779 641.22815132 775.77147865 C637.75422089 782.72040262 634.27617633 789.66725917 630.79668844 796.61340175 C626.77192964 804.64851884 622.75229792 812.68619326 618.73266602 820.72387695 C608.11780436 841.94309978 597.49597492 863.15883642 586.875 884.375 C563.15625 931.77125 539.4375 979.1675 515 1028 C345.05 1028 175.1 1028 0 1028 C0 688.76 0 349.52 0 0 Z " fill="#AC94EC" transform="translate(228,26)"/>
</svg>
